<?xml version="1.0" standalone="no"?>
<!DOCTYPE svg PUBLIC "-//W3C//DTD SVG 20010904//EN"
 "http://www.w3.org/TR/2001/REC-SVG-20010904/DTD/svg10.dtd">
<svg version="1.0" xmlns="http://www.w3.org/2000/svg"
 width="520.000000pt" height="520.000000pt" viewBox="0 0 520.000000 520.000000"
 preserveAspectRatio="xMidYMid meet">
<metadata>
Created by potrace 1.14, written by Peter Selinger 2001-2017
</metadata>
<g transform="translate(0.000000,520.000000) scale(0.100000,-0.100000)"
fill="#000000" stroke="none">
<path d="M2470 5121 c0 -6 5 -11 10 -11 6 0 25 -20 42 -45 l32 -45 70 1 c162
2 335 -19 551 -65 84 -19 289 -83 348 -110 38 -18 110 -49 117 -51 64 -18 425
-234 460 -274 3 -3 25 -22 50 -41 90 -68 285 -258 355 -344 22 -27 45 -54 50
-60 13 -13 123 -168 150 -211 67 -105 214 -400 229 -460 2 -5 6 -19 10 -30 30
-80 37 -100 45 -133 5 -20 21 -84 36 -142 14 -57 28 -120 30 -140 2 -19 6 -44
8 -55 7 -31 19 -134 23 -195 5 -74 4 -326 -1 -370 -2 -19 -6 -65 -9 -102 -12
-143 -95 -483 -141 -585 -8 -17 -15 -34 -15 -37 0 -19 -150 -324 -181 -368
-11 -14 -19 -29 -19 -33 0 -9 -62 -99 -72 -103 -4 -2 -8 -8 -8 -13 0 -9 -78
-113 -135 -179 -89 -103 -202 -216 -300 -300 l-50 -43 -2 -69 c-2 -79 -14 -82
112 23 223 184 440 440 582 686 45 78 97 181 128 253 20 47 42 99 50 115 33
78 95 284 119 402 41 194 51 306 51 538 0 201 -11 355 -31 445 -4 14 -8 39
-11 55 -8 54 -53 224 -82 313 -57 175 -151 381 -239 524 -21 35 -45 74 -53 87
-8 14 -19 32 -26 40 -6 9 -47 63 -90 121 -88 119 -320 358 -433 446 -41 32
-77 61 -80 64 -3 3 -13 10 -22 15 -9 6 -47 31 -85 56 -136 93 -233 146 -427
233 -106 48 -364 130 -476 150 -14 3 -50 9 -80 15 -151 28 -178 30 -402 37
-137 5 -188 3 -188 -5z"/>
<path d="M1196 4980 c-1 -3 -2 -1107 -2 -2455 l1 -2450 1405 0 1405 0 0 585 0
585 -695 0 -695 0 0 -125 0 -125 568 0 567 0 1 -40 c0 -54 0 -551 0 -596 l-1
-36 -1151 1 -1151 1 0 2197 c0 1208 2 2200 5 2205 4 6 156 9 198 4 3 -1 6
-934 7 -2073 0 -1140 1 -2085 1 -2099 l1 -26 128 0 128 0 0 2226 -1 2226 -358
0 c-197 0 -360 -2 -361 -5z"/>
<path d="M2150 4946 c-1 -52 -1 -4270 0 -4352 l0 -61 688 1 687 1 0 129 0 129
-560 1 -560 1 0 238 c0 130 -3 237 -7 237 -3 0 -4 8 -2 18 8 28 10 942 2 942
-3 0 -4 8 -2 18 8 28 10 942 2 942 -3 0 -4 8 -2 18 9 31 9 942 1 942 -5 0 -5
4 -2 10 8 13 9 810 0 818 -4 4 -60 7 -126 8 l-119 1 0 -41z"/>
<path d="M1005 4584 c-16 -14 -50 -42 -75 -62 -69 -57 -280 -267 -325 -324
-22 -28 -45 -56 -50 -62 -6 -6 -26 -33 -45 -61 -19 -27 -37 -52 -40 -55 -3 -3
-22 -30 -42 -60 -134 -205 -240 -431 -312 -663 -32 -104 -69 -256 -69 -284 0
-7 -3 -13 -6 -13 -3 0 -6 -15 -7 -33 0 -17 -4 -48 -7 -67 -34 -178 -30 -606 7
-795 3 -16 9 -50 12 -75 3 -25 8 -48 11 -53 2 -4 7 -20 10 -35 3 -15 6 -31 7
-37 2 -5 6 -23 10 -40 19 -75 72 -229 112 -327 170 -417 474 -812 835 -1085
13 -11 15 -4 17 56 2 63 0 69 -26 88 -86 64 -274 254 -368 373 -171 218 -306
456 -389 690 -21 58 -40 112 -43 120 -3 8 -6 18 -7 23 -2 4 -3 8 -5 10 -1 1
-3 9 -5 17 -2 8 -14 60 -28 115 -14 55 -25 107 -26 115 0 8 -5 38 -10 65 -39
215 -42 599 -5 775 3 14 7 42 9 62 2 20 6 41 8 45 3 5 8 28 12 52 3 24 11 55
16 70 6 14 10 26 9 26 -7 0 71 247 94 299 8 17 29 65 48 106 41 93 157 305
181 330 9 11 17 22 17 25 0 8 125 176 171 230 50 59 226 233 292 289 l57 49 0
64 c0 35 -3 63 -7 63 -5 0 -21 -12 -38 -26z"/>
</g>
</svg>
