<svg viewBox="131.423 146.753 237.154 240" xmlns="http://www.w3.org/2000/svg">
  <g transform="matrix(1, 0, 0, 1, -25.000008, 31.752555)">
    <g id="text">
      <path d="M165.3594,295.40503v0v-29.21458h-8.93622v37.23427h8.87894h0.05728h17.92973v-8.01969z"
        style="paint-order: fill; fill: rgb(141, 127, 91);" />
      <path
        d="M194.63127,288.81743h14.49272v-8.01969h-14.49272v-6.5876h17.07048v-8.01969h-26.0067v37.23427h26.0067v-8.01969h-17.07048z"
        style="paint-order: fill; fill: rgb(141, 127, 91);" />
      <path
        d="M224.07498,288.81743h14.49272v-8.01969h-14.49272v-6.5876h17.07048v-8.01969h-26.0067v37.23427h26.0067v-8.01969h-17.07048z"
        style="paint-order: fill; fill: rgb(141, 127, 91);" />
      <path
        d="M268.12598,266.19045v21.48131c0,1.14567 -0.17185,2.11949 -0.63012,3.03602c-0.40098,0.85925 -1.0311,1.60394 -1.77579,2.29134c-0.74469,0.6874 -1.7185,1.20295 -2.69232,1.60394c-0.85925,0.28642 -1.77579,0.51555 -2.57776,0.51555c-1.31752,0 -3.43701,-0.63012 -5.09823,-2.06221c-1.66122,-1.3748 -2.46319,-3.20788 -2.46319,-5.49921v-21.36674h-8.30611c0,6.87402 0,15.69568 0,21.36674c0,10.54016 9.22264,15.86753 15.86753,15.86753c7.21772,0 15.98209,-5.78563 15.98209,-15.75296c0,-6.07205 0,-14.77914 0,-21.48131z"
        style="paint-order: fill; fill: rgb(141, 127, 91);" />
      <path
        d="M321.91518,266.19045l-9.73819,18.61713l-9.73819,-18.61713h-10.31103l8.53524,15.86753l-1.43209,2.74961l-9.73819,-18.61713h-10.31103l20.04922,37.23427v0v0v0v0l6.47303,-12.02953l6.47303,12.02953v0v0v0v0l20.04922,-37.23427z"
        style="paint-order: fill; fill: rgb(141, 127, 91);" />
      <path
        d="M344.59944,288.81743h14.49272v-8.01969h-14.49272v-6.5876h17.07048v-8.01969h-26.0067v37.23427h26.0067v-8.01969h-17.07048z"
        style="paint-order: fill; fill: rgb(141, 127, 91);" />
      <path d="M393.57682,303.42471v-37.23427l-20.1065,17.12776v-17.12776h-8.93622v37.23427l20.1065,-16.84135v16.84135z"
        style="paint-order: fill; fill: rgb(141, 127, 91);" />
      <path d="M166.60649,345.20836v0v-33.29159h-10.18331v42.43046h10.11803h0.06528h20.4319v-9.13887z"
        style="paint-order: fill; fill: rgb(141, 127, 91);" />
      <path
        d="M199.96336,337.70143h16.51524v-9.13887h-16.51524v-7.50693h19.45273v-9.13887h-29.63605v42.43046h29.63605v-9.13887h-19.45273z"
        style="paint-order: fill; fill: rgb(141, 127, 91);" />
      <path
        d="M255.90629,354.34722h11.74997l-22.78189,-42.43046v0v0v0v0l-22.84717,42.43046h11.74997l3.06805,-5.94026h15.99302zM240.95771,340.44309l3.91666,-7.44165l3.85138,7.44165z"
        style="paint-order: fill; fill: rgb(141, 127, 91);" />
      <path
        d="M281.03818,354.4125c3.59027,0 6.59304,-0.39167 9.07359,-1.24028c2.41527,-0.84861 4.3736,-2.08888 5.80971,-3.72083c2.80694,-3.13333 2.80694,-6.59304 2.80694,-7.96387c0,-2.80694 -0.97916,-5.41804 -2.87222,-7.63748c-2.87222,-3.32916 -7.63748,-5.35277 -14.09997,-6.07082c-5.80971,-0.65278 -8.68193,-2.28472 -8.68193,-5.02638c0,-2.87222 4.3736,-3.85138 8.1597,-3.85138c3.65555,0 6.26665,1.10972 7.57221,2.93749c1.04444,1.37083 0.97916,3.32916 0.97916,3.32916v-0.06528h8.94304c0,-0.65278 -0.13056,-4.63471 -2.34999,-8.09443c-2.08888,-3.1986 -6.39721,-7.04998 -15.14441,-7.04998v0c-6.65832,0 -11.48886,1.7625 -14.49163,5.15693c-1.37083,1.56666 -2.93749,4.24305 -2.93749,8.22498c0,2.87222 0.97916,5.41804 2.93749,7.57221c1.37083,1.50139 3.1986,2.74166 5.41804,3.65555c2.34999,0.97916 5.28749,1.69722 8.61665,2.08888c5.41804,0.5875 8.7472,2.21944 8.7472,4.83054c0,2.48055 -2.61111,3.98194 -8.48609,3.98194c-3.52499,0 -5.94026,-0.97916 -7.24582,-2.93749c-1.04444,-1.56666 -1.04444,-3.98194 -1.04444,-3.98194v0.06528l-8.94304,-0.13056c0,0.5875 -0.65278,6.65832 4.30832,11.22775c1.56666,1.37083 3.26388,2.61111 5.35277,3.45971c2.21944,0.84861 4.76527,1.24028 7.57221,1.24028z"
        style="paint-order: fill; fill: rgb(141, 127, 91);" />
      <path d="M301.66591,311.91676v42.43046h10.18331v-42.43046z" style="paint-order: fill; fill: rgb(141, 127, 91);" />
      <path
        d="M347.2297,354.34722v-42.43046l-22.91245,19.51801v-19.51801h-10.18331v42.43046l22.91245,-19.19162v19.19162z"
        style="paint-order: fill; fill: rgb(141, 127, 91);" />
      <path
        d="M385.09073,329.73756v0h-10.57498v8.48609h9.79164c-0.5875,1.50139 -2.48055,3.45971 -2.93749,3.91666c-2.41527,2.34999 -5.61388,3.72083 -9.00831,3.72083c-3.39444,0 -6.59304,-1.37083 -8.94304,-3.72083c-2.41527,-2.41527 -3.7861,-5.61388 -3.7861,-9.00831c0,-3.39444 1.37083,-6.59304 3.7861,-9.00831c2.34999,-2.41527 5.5486,-3.72083 8.94304,-3.72083c2.80694,0 5.48332,0.91389 7.70276,2.54583v0l6.52776,-6.46249c-3.85138,-3.26388 -8.81248,-5.22221 -14.23052,-5.22221c-12.07636,0 -21.86801,9.79164 -21.86801,21.86801c0,12.07636 9.79164,21.86801 21.86801,21.86801c4.76527,0 9.13887,-1.50139 12.72914,-4.04721v3.39444h8.48609v-24.60967zM385.02545,338.22365h0.06528v0.06528z"
        style="paint-order: fill; fill: rgb(141, 127, 91);" />
    </g>
    <g id="logo">
      <path
        d="M239.81931,118.61297h18.07281v111.41972h-6.49217v-105.10301h-5.26393v110.36693h57.72769v-16.84456h-28.60065v-6.31671h34.91736v29.47797h-70.36111zM263.68243,118.61297h6.31671v104.92754h28.24972v6.49217h-34.56643zM228.95791,134.07118c2.26389,-2.26388 4.65435,-4.33516 7.17139,-6.21383v3.40333c-1.82847,1.4607 -3.58406,3.0324 -5.26677,4.71513c-5.75987,5.75984 -10.21908,12.37357 -13.37763,19.84121c-3.26979,7.73067 -4.90468,15.82937 -4.90468,24.29612c0,8.46661 1.63489,16.56526 4.90468,24.29597c3.15855,7.46761 7.61775,14.08136 13.37763,19.84126c1.6827,1.68274 3.43829,3.25447 5.26677,4.71518v3.40345c-2.51704,-1.87871 -4.9075,-3.95003 -7.17139,-6.21396c-6.00747,-6.0073 -10.65872,-12.90614 -13.95373,-20.69651c-3.41163,-8.06603 -5.11744,-16.5145 -5.11744,-25.3454c0,-8.83086 1.70581,-17.27934 5.11744,-25.3454c3.29498,-7.7902 7.94622,-14.68905 13.95373,-20.69656zM274.99987,115c8.83086,0 17.27939,1.70582 25.34555,5.11746c7.79002,3.29493 14.68886,7.94618 20.69651,13.95372c6.0073,6.00747 10.65846,12.90633 13.95347,20.69656c3.41191,8.06607 5.11786,16.51454 5.11786,25.3454c0,8.8309 -1.70595,17.27937 -5.11786,25.3454c-3.29501,7.79002 -7.94617,14.68886 -13.95347,20.69651c-2.264,2.264 -4.65457,4.33538 -7.17171,6.21414v-3.40348c1.82856,-1.46076 3.58424,-3.03253 5.26703,-4.71533c5.75991,-5.75956 10.21915,-12.37331 13.37773,-19.84126c3.26954,-7.7307 4.90431,-15.82936 4.90431,-24.29597c0,-8.46675 -1.63477,-16.56546 -4.90431,-24.29612c-3.15858,-7.46757 -7.61782,-14.0813 -13.37773,-19.84121c-5.75991,-5.75987 -12.37366,-10.21908 -19.84126,-13.37763c-7.73067,-3.26979 -15.82937,-4.90469 -24.29612,-4.90469c-0.47561,0 -0.95007,0.00516 -1.42336,0.01548l-0.04626,-0.16715l-0.05679,-0.17197l-0.06522,-0.16898l-0.07338,-0.16558l-0.08144,-0.16178l-0.08924,-0.15758l-0.09693,-0.15302l-0.10426,-0.14807l-0.11143,-0.14278l-0.11829,-0.13714l-0.12489,-0.13117l-0.13116,-0.12489l-0.13714,-0.1183l-0.14279,-0.11143l-0.14807,-0.10429l-0.15304,-0.0969l-0.1576,-0.08927l-0.16179,-0.08142l-0.16555,-0.0734l-0.16896,-0.06518l-0.089,-0.0294c1.27403,-0.07284 2.55622,-0.10926 3.84659,-0.10926z"
        style="paint-order: fill; fill: rgb(141, 127, 91);" />
    </g>
  </g>
</svg>
