<?xml version="1.0" encoding="utf-8"?>
<svg viewBox="184.887 146.753 130.227 126.613" xmlns="http://www.w3.org/2000/svg">
  <g id="logo" transform="matrix(1, 0, 0, 1, -25.000008, 31.752555)">
    <path d="M239.81931,118.61297h18.07281v111.41972h-6.49217v-105.10301h-5.26393v110.36693h57.72769v-16.84456h-28.60065v-6.31671h34.91736v29.47797h-70.36111zM263.68243,118.61297h6.31671v104.92754h28.24972v6.49217h-34.56643zM228.95791,134.07118c2.26389,-2.26388 4.65435,-4.33516 7.17139,-6.21383v3.40333c-1.82847,1.4607 -3.58406,3.0324 -5.26677,4.71513c-5.75987,5.75984 -10.21908,12.37357 -13.37763,19.84121c-3.26979,7.73067 -4.90468,15.82937 -4.90468,24.29612c0,8.46661 1.63489,16.56526 4.90468,24.29597c3.15855,7.46761 7.61775,14.08136 13.37763,19.84126c1.6827,1.68274 3.43829,3.25447 5.26677,4.71518v3.40345c-2.51704,-1.87871 -4.9075,-3.95003 -7.17139,-6.21396c-6.00747,-6.0073 -10.65872,-12.90614 -13.95373,-20.69651c-3.41163,-8.06603 -5.11744,-16.5145 -5.11744,-25.3454c0,-8.83086 1.70581,-17.27934 5.11744,-25.3454c3.29498,-7.7902 7.94622,-14.68905 13.95373,-20.69656zM274.99987,115c8.83086,0 17.27939,1.70582 25.34555,5.11746c7.79002,3.29493 14.68886,7.94618 20.69651,13.95372c6.0073,6.00747 10.65846,12.90633 13.95347,20.69656c3.41191,8.06607 5.11786,16.51454 5.11786,25.3454c0,8.8309 -1.70595,17.27937 -5.11786,25.3454c-3.29501,7.79002 -7.94617,14.68886 -13.95347,20.69651c-2.264,2.264 -4.65457,4.33538 -7.17171,6.21414v-3.40348c1.82856,-1.46076 3.58424,-3.03253 5.26703,-4.71533c5.75991,-5.75956 10.21915,-12.37331 13.37773,-19.84126c3.26954,-7.7307 4.90431,-15.82936 4.90431,-24.29597c0,-8.46675 -1.63477,-16.56546 -4.90431,-24.29612c-3.15858,-7.46757 -7.61782,-14.0813 -13.37773,-19.84121c-5.75991,-5.75987 -12.37366,-10.21908 -19.84126,-13.37763c-7.73067,-3.26979 -15.82937,-4.90469 -24.29612,-4.90469c-0.47561,0 -0.95007,0.00516 -1.42336,0.01548l-0.04626,-0.16715l-0.05679,-0.17197l-0.06522,-0.16898l-0.07338,-0.16558l-0.08144,-0.16178l-0.08924,-0.15758l-0.09693,-0.15302l-0.10426,-0.14807l-0.11143,-0.14278l-0.11829,-0.13714l-0.12489,-0.13117l-0.13116,-0.12489l-0.13714,-0.1183l-0.14279,-0.11143l-0.14807,-0.10429l-0.15304,-0.0969l-0.1576,-0.08927l-0.16179,-0.08142l-0.16555,-0.0734l-0.16896,-0.06518l-0.089,-0.0294c1.27403,-0.07284 2.55622,-0.10926 3.84659,-0.10926z" style="paint-order: fill; fill: rgb(141, 127, 91);"/>
  </g>
</svg>
